<svg width="84" height="56" viewBox="0 0 84 56" fill="none" xmlns="http://www.w3.org/2000/svg">
<g clip-path="url(#clip0)">
<path d="M78.4002 25.7176C54.0692 25.7176 29.9956 25.7176 5.66455 25.7176C5.79329 17.938 9.78409 12.5374 15.4485 8.16537C30.5749 -3.47183 56.9013 -2.44313 71.0623 10.2871C75.6967 14.4019 78.1427 19.4168 78.4002 25.7176ZM31.5404 15.8163C31.0255 15.302 30.5105 14.7233 29.9956 14.209C28.7082 15.4306 27.4209 16.7165 26.1979 17.938C26.7128 18.4524 27.5496 19.3525 27.614 19.3525C28.9013 18.2595 30.1887 17.0379 31.5404 15.8163ZM21.2416 15.9449C20.791 15.3663 20.276 14.7876 19.8255 14.209C18.4737 15.3663 17.122 16.5236 15.8347 17.8095C15.7703 17.8738 16.9933 19.2882 17.0577 19.2882C18.4737 18.2595 19.8255 17.1022 21.2416 15.9449ZM27.7427 8.22966C27.2278 7.71531 26.7128 7.26525 26.2623 6.7509C25.0393 7.90819 23.7519 9.06548 22.5933 10.3514C22.5289 10.4157 23.5588 11.4444 24.0094 12.023C25.2967 10.7371 26.5197 9.45125 27.7427 8.22966Z" fill="#FFD600"/>
<path d="M41.7105 42.5625C29.9956 42.5625 18.345 42.5625 6.63008 42.5625C4.18411 42.5625 1.8025 42.4339 0.772613 39.6693C-0.32164 36.7761 -0.514743 33.7543 1.41629 31.1182C1.93123 30.411 2.96112 29.5752 3.73353 29.5752C12.5519 29.5752 21.6278 27.7106 29.9312 32.1469C33.4071 34.0114 36.6899 36.2617 39.9082 38.5763C41.6462 39.8622 42.6117 39.7979 44.2209 38.4477C46.6025 36.4546 49.2416 34.8473 51.8807 33.1756C56.5795 30.2824 61.6646 29.0608 67.2002 29.318C70.9335 29.5109 74.7312 29.318 78.4646 29.4466C82.4554 29.5752 84.0002 31.4397 84.0002 36.0046C84.0002 40.5051 82.3266 42.4982 78.4002 42.5625C66.1703 42.5625 53.9404 42.5625 41.7105 42.5625Z" fill="#FFD600"/>
<path d="M77.2411 46.2916C76.1469 53.1068 72.9285 56 66.4274 56C50.0136 56.0643 33.6641 56.0643 17.2503 56C11.1354 56 7.78827 52.8496 6.82275 46.2916C30.2526 46.2916 53.6182 46.2916 77.2411 46.2916Z" fill="#FFD600"/>
</g>
<defs>
<clipPath id="clip0">
<rect width="84" height="56" fill="white"/>
</clipPath>
</defs>
</svg>
